<svg width="32" height="32" viewBox="0 0 32 32" fill="none" xmlns="http://www.w3.org/2000/svg">
<g clip-path="url(#clip0_13_2)">
<rect width="32" height="32" rx="5" fill="white"/>
<path d="M13.0513 20.7L24.3513 9.4C24.6179 9.13333 24.9291 9 25.2846 9C25.6402 9 25.9513 9.13333 26.2179 9.4C26.4846 9.66667 26.6179 9.98356 26.6179 10.3507C26.6179 10.7178 26.4846 11.0342 26.2179 11.3L13.9846 23.5667C13.7179 23.8333 13.4068 23.9667 13.0513 23.9667C12.6957 23.9667 12.3846 23.8333 12.1179 23.5667L6.38462 17.8333C6.11795 17.5667 5.98995 17.2502 6.00062 16.884C6.01128 16.5178 6.15039 16.2009 6.41795 15.9333C6.6855 15.6658 7.00239 15.5324 7.36862 15.5333C7.73484 15.5342 8.05128 15.6676 8.31795 15.9333L13.0513 20.7Z" fill="#155DFC"/>
</g>
<defs>
<clipPath id="clip0_13_2">
<rect width="32" height="32" rx="5" fill="white"/>
</clipPath>
</defs>
</svg>
